<svg width="16" height="16" viewBox="0 0 16 16" fill="none" xmlns="http://www.w3.org/2000/svg">
<path d="M12.5275 7.33664H5.08079L8.33412 4.08331C8.59412 3.82331 8.59412 3.39664 8.33412 3.13664C8.20956 3.01181 8.04046 2.94165 7.86412 2.94165C7.68777 2.94165 7.51867 3.01181 7.39412 3.13664L3.00079 7.52997C2.74079 7.78997 2.74079 8.20997 3.00079 8.46997L7.39412 12.8633C7.65412 13.1233 8.07412 13.1233 8.33412 12.8633C8.59412 12.6033 8.59412 12.1833 8.33412 11.9233L5.08079 8.66997H12.5275C12.8941 8.66997 13.1941 8.36997 13.1941 8.00331C13.1941 7.63664 12.8941 7.33664 12.5275 7.33664Z" fill="#8A3FFC"/>
</svg>
