<svg width="12" height="12" viewBox="0 0 12 12" fill="none" xmlns="http://www.w3.org/2000/svg">
<path d="M1.4725 6.6668H8.91917L5.66583 9.92013C5.40583 10.1801 5.40583 10.6068 5.66583 10.8668C5.92583 11.1268 6.34583 11.1268 6.60583 10.8668L10.9992 6.47347C11.2592 6.21347 11.2592 5.79347 10.9992 5.53347L6.6125 1.13347C6.48794 1.00863 6.31884 0.938477 6.1425 0.938477C5.96615 0.938477 5.79705 1.00863 5.6725 1.13347C5.4125 1.39347 5.4125 1.81347 5.6725 2.07347L8.91917 5.33347H1.4725C1.10583 5.33347 0.805832 5.63347 0.805832 6.00013C0.805832 6.3668 1.10583 6.6668 1.4725 6.6668Z" fill="white"/>
</svg>
