<svg width="20" height="20" viewBox="0 0 20 20" fill="none" xmlns="http://www.w3.org/2000/svg">
<path fill-rule="evenodd" clip-rule="evenodd" d="M1.7998 3.42506C1.46137 3.07681 1.46137 2.51424 1.7998 2.16598C2.13823 1.81772 2.6936 1.81772 3.03203 2.16598L17.1853 16.7481C17.5238 17.0964 17.5238 17.659 17.1853 18.0072C16.8469 18.3555 16.3002 18.3555 15.9618 18.0072L13.6015 15.5784C12.4386 16.0427 11.1804 16.3106 9.86137 16.3106C5.52253 16.3106 1.81716 13.5335 0.315918 9.61333C0.9841 7.85418 2.10352 6.33614 3.50931 5.18421L1.7998 3.42506ZM14.2002 9.6135C14.2002 7.14891 12.2564 5.14866 9.86136 5.14866C9.41879 5.14866 8.99359 5.23796 8.58574 5.36298L6.70268 3.42524C7.70061 3.09484 8.75929 2.91624 9.86136 2.91624C14.2002 2.91624 17.9056 5.69337 19.4068 9.60457C18.8081 11.1762 17.8535 12.5514 16.6473 13.6497L13.9919 10.9172C14.1134 10.5065 14.2002 10.0689 14.2002 9.6135ZM9.86138 14.0781C7.46634 14.0781 5.52254 12.0779 5.52254 9.61328C5.52254 8.9257 5.67873 8.27383 5.94774 7.70233L7.31014 9.10429C7.28411 9.26502 7.25807 9.43469 7.25807 9.61328C7.25807 11.0956 8.42088 12.2922 9.86138 12.2922C10.0349 12.2922 10.1911 12.2654 10.356 12.2297L11.7184 13.6316C11.1544 13.9174 10.5296 14.0781 9.86138 14.0781ZM12.4387 9.31884C12.3085 8.06868 11.354 7.09535 10.1478 6.9614L12.4387 9.31884Z" fill="#6F6F6F"/>
</svg>
