<svg width="20" height="20" viewBox="0 0 20 20" fill="none" xmlns="http://www.w3.org/2000/svg">
<path fill-rule="evenodd" clip-rule="evenodd" d="M3.72494 17.0865H16.2749C17.5583 17.0865 18.3583 15.6948 17.7166 14.5865L11.4416 3.74482C10.7999 2.63649 9.19994 2.63649 8.55827 3.74482L2.28327 14.5865C1.6416 15.6948 2.4416 17.0865 3.72494 17.0865ZM9.99994 11.2532C9.5416 11.2532 9.1666 10.8782 9.1666 10.4198V8.75316C9.1666 8.29482 9.5416 7.91982 9.99994 7.91982C10.4583 7.91982 10.8333 8.29482 10.8333 8.75316V10.4198C10.8333 10.8782 10.4583 11.2532 9.99994 11.2532ZM9.1666 14.5865H10.8333V12.9198H9.1666V14.5865Z" fill="#DA1E28"/>
</svg>
